# xmcd
#
# Track frame offsets:
#	225
#	20900
#	44683
#	64068
#	79421
#	96360
#	119081
#	133899
#	149508
#	167345
#	185244
#	194156
#	205397
#	228379
#	245164
#	263100
#	283826
#	302362
#	320350
#
# Disc length: 4459
#
# Revision: 1
# Processed by: cddbd v1.5.1PL0 Copyright (c) Steve Scherf et al.
# Submitted via: dBpowerAMP V4.0
# Normalized: r0:TDELIM( - )
#
DISCID=39116813
DTITLE=Various Artist - Super Chart Hit's 97 Vol.3
DYEAR=1997
DGENRE=Pop
TTITLE0=Inxs - Elegantly Wasted
TTITLE1=Lisa Standsfield - The Real Thing
TTITLE2=De La Soul - Ft. Zhane - 4 More
TTITLE3=Cristal Waters - Say If You Feel Alright
TTITLE4=Fun Lovin Criminals - King Of New York
TTITLE5=Quad Sity DJ's - Space Jam
TTITLE6=Az-Yet - Hard To Say I'm Sorry
TTITLE7=Faith Evans - I Just Can't
TTITLE8=Marquis - Ft. Brix X - The Rain
TTITLE9=Wink - Are You There
TTITLE10=The Offspring - All I Want
TTITLE11=Robson and Jerome - Saturday Night At The Movies
TTITLE12=Zelma Devis - I'm Calling (Sau It Loud)
TTITLE13=Toni Cottura - Da Partyboom
TTITLE14=G's Incorporated - Stairway To Heaven
TTITLE15=Brian Mc Night - Ft. Daina King - When We Were Kings
TTITLE16=911 - The Day We Find Love
TTITLE17=Wild Orchild - Talk To Me
TTITLE18=Gina G - Fresh! (Live Version)
EXTD=
EXTT0=
EXTT1=
EXTT2=
EXTT3=
EXTT4=
EXTT5=
EXTT6=
EXTT7=
EXTT8=
EXTT9=
EXTT10=
EXTT11=
EXTT12=
EXTT13=
EXTT14=
EXTT15=
EXTT16=
EXTT17=
EXTT18=
PLAYORDER=
